<svg height="448pt" viewBox="0 0 448 448" width="448pt" xmlns="http://www.w3.org/2000/svg"><path d="m224 0c-123.710938 0-224 100.289062-224 224s100.289062 224 224 224 224-100.289062 224-224c-.140625-123.652344-100.347656-223.859375-224-224zm120 288c0 3.234375-1.949219 6.152344-4.9375 7.390625s-6.429688.550781-8.71875-1.734375l-50.34375-50.34375v60.6875c0 4.417969-3.582031 8-8 8h-160c-4.417969 0-8-3.582031-8-8v-160c0-4.417969 3.582031-8 8-8h160c4.417969 0 8 3.582031 8 8v60.6875l50.34375-50.34375c2.289062-2.285156 5.730469-2.972656 8.71875-1.734375s4.9375 4.15625 4.9375 7.390625zm0 0"/><path d="m328 268.6875v-89.375l-44.6875 44.6875zm0 0"/><path d="m120 152h144v144h-144zm0 0"/></svg>