<svg id="Layer_1" enable-background="new 0 0 512 512" height="512" viewBox="0 0 512 512" width="512" xmlns="http://www.w3.org/2000/svg"><path d="m346.955 202.231c-.941-32.267-27.464-58.231-59.955-58.231h-132c-33.084 0-60 26.916-60 60v106c0 33.084 26.916 60 60 60h132c32.569 0 59.142-26.09 59.961-58.466l77.039 22.075v-154.013zm-39.955 107.769c0 11.028-8.972 20-20 20h-132c-11.028 0-20-8.972-20-20v-106c0-11.028 8.972-20 20-20h132c11.028 0 20 8.972 20 20zm77-29.463-37-10.602v-26.025l37-10.871zm53.02-205.557c-48.353-48.351-112.64-74.98-181.02-74.98s-132.667 26.629-181.02 74.98c-48.351 48.353-74.98 112.64-74.98 181.02s26.629 132.667 74.98 181.02c48.353 48.351 112.64 74.98 181.02 74.98s132.667-26.629 181.02-74.98c48.351-48.353 74.98-112.64 74.98-181.02s-26.629-132.667-74.98-181.02zm-181.02 397.02c-119.103 0-216-96.897-216-216s96.897-216 216-216 216 96.897 216 216-96.897 216-216 216zm-51-238c0 11.046-8.954 20-20 20s-20-8.954-20-20 8.954-20 20-20 20 8.954 20 20z"/></svg>